<?xml version="1.0" encoding="UTF-8"?>
<svg xmlns="http://www.w3.org/2000/svg" version="1.1" viewBox="0 0 823.53 619.51">
  <!-- Generator: Adobe Illustrator 30.3.0, SVG Export Plug-In . SVG Version: 2.1.3 Build 182)  -->
  <defs>
    <style>
      .st0, .st1, .st2, .st3, .st4, .st5, .st6, .st7, .st8, .st9, .st10, .st11, .st12, .st13, .st14, .st15, .st16, .st17 {
        fill: none;
      }

      .st0, .st3 {
        stroke-width: 11.11px;
      }

      .st0, .st12 {
        stroke: #7b6ce9;
      }

      .st18 {
        font-family: Arial-BoldMT, Arial;
        font-size: 10px;
      }

      .st18, .st19, .st20 {
        fill: #404040;
      }

      .st18, .st21, .st20 {
        isolation: isolate;
      }

      .st18, .st20 {
        font-weight: 700;
      }

      .st1, .st5, .st6, .st15 {
        stroke: #71c8f7;
      }

      .st1, .st7 {
        stroke-width: 2.78px;
      }

      .st2 {
        stroke-width: 19.44px;
      }

      .st2, .st17 {
        stroke: #9a6dc2;
      }

      .st3, .st11 {
        stroke: #9a5dd1;
      }

      .st4, .st6 {
        stroke-width: 25px;
      }

      .st4, .st9, .st16 {
        stroke: #9eebf3;
      }

      .st5 {
        stroke-width: 16.67px;
      }

      .st7 {
        stroke: #26ffb4;
      }

      .st8, .st10 {
        stroke: #849af1;
      }

      .st8, .st17 {
        stroke-width: 8.33px;
      }

      .st9 {
        stroke-width: 133.33px;
      }

      .st10 {
        stroke-width: 94.44px;
      }

      .st11 {
        stroke-width: 77.78px;
      }

      .st12 {
        stroke-width: 5.56px;
      }

      .st20 {
        font-family: Georama-Bold, Georama;
        font-size: 12px;
      }

      .st13 {
        stroke: #d45bda;
        stroke-width: 38.89px;
      }

      .st14 {
        stroke: #e594e7;
        stroke-width: 10px;
      }

      .st22 {
        mix-blend-mode: multiply;
        opacity: .6;
      }

      .st15 {
        stroke-width: 147.22px;
      }

      .st16 {
        stroke-width: 41.67px;
      }
    </style>
  </defs>
  <g class="st21">
    <g id="Capa_1">
      <g id="visualization">
        <g>
          <rect class="st19" x="45" y="34.51" width="5" height="2.78"/>
          <rect class="st19" x="780" y="39.51" width="5" height="11.11"/>
          <rect class="st19" x="412.5" y="39.51" width="5" height="16.67"/>
          <rect class="st19" x="45" y="42.29" width="5" height="16.67"/>
          <rect class="st19" x="45" y="63.96" width="5" height="36.11"/>
          <rect class="st19" x="412.5" y="61.18" width="5" height="38.89"/>
          <rect class="st19" x="412.5" y="105.07" width="5" height="88.89"/>
          <rect class="st19" x="45" y="105.07" width="5" height="102.78"/>
          <rect class="st19" x="779.76" y="55.63" width="5.47" height="137.37"/>
          <rect class="st19" x="45" y="212.85" width="5" height="191.67"/>
          <rect class="st19" x="45" y="409.51" width="5" height="200"/>
          <rect class="st19" x="412.5" y="198.96" width="5" height="405.56"/>
        </g>
        <g>
          <g class="st22">
            <path class="st5" d="M50,221.18c181.25,0,181.25-173.33,362.5-173.33"/>
          </g>
          <g class="st22">
            <path class="st0" d="M50,53.4c181.25,0,181.25,151.11,362.5,151.11"/>
          </g>
          <g class="st22">
            <path class="st10" d="M50,160.63c181.25,0,181.25,116.11,362.5,116.11"/>
          </g>
          <g class="st22">
            <path class="st15" d="M50,330.9c181.25,0,181.25,66.67,362.5,66.67"/>
          </g>
          <g class="st22">
            <path class="st9" d="M50,542.85c181.25,0,181.25-5,362.5-5"/>
          </g>
          <g class="st22">
            <path class="st2" d="M50,90.35c181.25,0,181.25,129.44,362.5,129.44"/>
          </g>
          <g class="st22">
            <path class="st7" d="M50,35.9c181.25,0,181.25,26.67,362.5,26.67"/>
          </g>
          <g class="st22">
            <path class="st17" d="M50,68.13h362.5"/>
          </g>
          <g class="st22">
            <path class="st4" d="M50,422.01c181.25,0,181.25-334.44,362.5-334.44"/>
          </g>
          <g class="st22">
            <path class="st1" d="M50,230.9c181.25,0,181.25-157.22,362.5-157.22"/>
          </g>
          <g class="st22">
            <path class="st16" d="M50,455.35c181.25,0,181.25-282.22,362.5-282.22"/>
          </g>
          <g class="st22">
            <path class="st12" d="M50,45.07c181.25,0,181.25,62.78,362.5,62.78"/>
          </g>
          <g class="st22">
            <path class="st8" d="M50,109.24c181.25,0,181.25,13.89,362.5,13.89"/>
          </g>
          <g class="st22">
            <path class="st6" d="M50,244.79c181.25,0,181.25-105,362.5-105"/>
          </g>
          <g class="st22">
            <path class="st17" d="M50,76.46c181.25,0,181.25,38.33,362.5,38.33"/>
          </g>
          <g class="st22">
            <path class="st13" d="M417.5,80.63c181.25,0,181.25-5.56,362.5-5.56"/>
          </g>
          <g class="st22">
            <path class="st3" d="M417.5,110.63c181.25,0,181.25-65.56,362.5-65.56"/>
          </g>
          <g class="st22">
            <path class="st11" d="M417.5,155.07c181.25,0,181.25-21.67,362.5-21.67"/>
          </g>
        </g>
        <g>
          <g class="st21">
            <text class="st18" transform="translate(54 40.38)"><tspan x="0" y="0">DISEÑO TEATRAL</tspan></text>
          </g>
          <g class="st21">
            <text class="st18" transform="translate(718.23 48.55)"><tspan x="0" y="0">BACHILLER</tspan></text>
          </g>
          <g class="st21">
            <text class="st18" transform="translate(421.5 51.33)"><tspan x="0" y="0">CFT</tspan></text>
          </g>
          <g class="st21">
            <text class="st18" transform="translate(54 55.11)"><tspan x="0" y="0">DISEÑO DE AMBIENTES/INTERIORES</tspan></text>
          </g>
          <g class="st21">
            <text class="st18" transform="translate(54 83.5)"><tspan x="0" y="0">DISEÑO INDUSTRIAL/PRODUCTOS</tspan></text>
          </g>
          <g class="st21">
            <text class="st18" transform="translate(421.5 84.11)"><tspan x="0" y="0">UNIVERSIDAD ESTATAL</tspan></text>
          </g>
          <g class="st21">
            <text class="st18" transform="translate(421.5 149)"><tspan x="0" y="0">UNIVERSIDAD PRIVADA</tspan></text>
          </g>
          <g class="st21">
            <text class="st18" transform="translate(54 155.94)"><tspan x="0" y="0">DISEÑO DE VESTUARIO/MODA</tspan></text>
          </g>
          <g class="st21">
            <text class="st18" transform="translate(701.75 114.44)"><tspan x="0" y="0">LICENCIATURA</tspan></text>
          </g>
          <g class="st21">
            <text class="st18" transform="translate(54 308.16)"><tspan x="0" y="0">DISEÑO DIGITAL/WEB/ANIMACIÓN</tspan></text>
          </g>
          <g class="st21">
            <text class="st18" transform="translate(54 509)"><tspan x="0" y="0">DISEÑO GRÁFICO</tspan></text>
          </g>
          <g class="st21">
            <text class="st18" transform="translate(421.5 401.22)"><tspan x="0" y="0">IP</tspan></text>
          </g>
        </g>
        <g>
          <text class="st20" transform="translate(13.83 19.51)"><tspan x="0" y="0">ESPECIALIDAD</tspan></text>
          <text class="st20" transform="translate(760.17 24.51)"><tspan x="0" y="0">GRADO</tspan></text>
          <text class="st20" transform="translate(351 24.51)"><tspan x="0" y="0">TIPO DE INSTITUCIÓN</tspan></text>
        </g>
      </g>
      <path class="st14" d="M417.5,465.11c181.25,0,181.25-278.03,362.5-278.03"/>
      <path class="st14" d="M417.5,597.5c181.25,0,181.01-409.79,362.26-409.79"/>
      <path class="st14" d="M417.3,204.25c181.25,0,181.45-27.13,362.7-27.13"/>
      <path class="st14" d="M417.5,319.51c181.25,0,181.25-138.43,362.5-138.43"/>
    </g>
  </g>
</svg>